<svg width="18" height="16" viewBox="0 0 18 16" fill="none" xmlns="http://www.w3.org/2000/svg">
<path d="M16.0714 6.57143C16.3672 6.57143 16.6183 6.67745 16.8248 6.88951C17.0368 7.09598 17.1429 7.3471 17.1429 7.64286C17.1429 7.93862 17.0368 8.19252 16.8248 8.40458C16.6183 8.61105 16.3672 8.71429 16.0714 8.71429H15.9459L14.9833 14.2556C14.9386 14.5123 14.8158 14.7243 14.615 14.8917C14.4141 15.0592 14.1853 15.1429 13.9286 15.1429H3.21429C2.95759 15.1429 2.72879 15.0592 2.5279 14.8917C2.32701 14.7243 2.20424 14.5123 2.1596 14.2556L1.19699 8.71429H1.07143C0.77567 8.71429 0.521763 8.61105 0.30971 8.40458C0.103237 8.19252 0 7.93862 0 7.64286C0 7.3471 0.103237 7.09598 0.30971 6.88951C0.521763 6.67745 0.77567 6.57143 1.07143 6.57143H16.0714ZM4.05971 13.2679C4.2048 13.2567 4.32478 13.1925 4.41964 13.0753C4.52009 12.9637 4.56473 12.8354 4.55357 12.6903L4.28571 9.20815C4.27455 9.06306 4.21038 8.94308 4.09319 8.84821C3.98158 8.74777 3.85324 8.70312 3.70815 8.71429C3.56306 8.72545 3.44029 8.78962 3.33984 8.90681C3.24498 9.01842 3.20313 9.14676 3.21429 9.29185L3.48214 12.774C3.4933 12.9135 3.54911 13.0307 3.64955 13.1256C3.75558 13.2204 3.87835 13.2679 4.01786 13.2679H4.05971ZM7.5 12.7321V9.25C7.5 9.10491 7.44699 8.97935 7.34096 8.87333C7.23493 8.7673 7.10938 8.71429 6.96429 8.71429C6.8192 8.71429 6.69364 8.7673 6.58761 8.87333C6.48159 8.97935 6.42857 9.10491 6.42857 9.25V12.7321C6.42857 12.8772 6.48159 13.0028 6.58761 13.1088C6.69364 13.2148 6.8192 13.2679 6.96429 13.2679C7.10938 13.2679 7.23493 13.2148 7.34096 13.1088C7.44699 13.0028 7.5 12.8772 7.5 12.7321ZM10.7143 12.7321V9.25C10.7143 9.10491 10.6613 8.97935 10.5552 8.87333C10.4492 8.7673 10.3237 8.71429 10.1786 8.71429C10.0335 8.71429 9.90792 8.7673 9.8019 8.87333C9.69587 8.97935 9.64286 9.10491 9.64286 9.25V12.7321C9.64286 12.8772 9.69587 13.0028 9.8019 13.1088C9.90792 13.2148 10.0335 13.2679 10.1786 13.2679C10.3237 13.2679 10.4492 13.2148 10.5552 13.1088C10.6613 13.0028 10.7143 12.8772 10.7143 12.7321ZM13.6607 12.774L13.9286 9.29185C13.9397 9.14676 13.8951 9.01842 13.7946 8.90681C13.6998 8.78962 13.5798 8.72545 13.4347 8.71429C13.2896 8.70312 13.1585 8.74777 13.0413 8.84821C12.9297 8.94308 12.8683 9.06306 12.8571 9.20815L12.5893 12.6903C12.5781 12.8354 12.62 12.9637 12.7148 13.0753C12.8153 13.1925 12.9381 13.2567 13.0831 13.2679H13.125C13.2645 13.2679 13.3845 13.2204 13.4849 13.1256C13.591 13.0307 13.6496 12.9135 13.6607 12.774ZM3.98438 2.58705L3.20592 6.03571H2.101L2.94643 2.34431C3.05246 1.85324 3.30078 1.45424 3.69141 1.14732C4.08203 0.834821 4.52846 0.678571 5.03069 0.678571H6.42857C6.42857 0.533481 6.48159 0.407923 6.58761 0.301897C6.69364 0.19587 6.8192 0.142856 6.96429 0.142856H10.1786C10.3237 0.142856 10.4492 0.19587 10.5552 0.301897C10.6613 0.407923 10.7143 0.533481 10.7143 0.678571H12.1122C12.6144 0.678571 13.0608 0.834821 13.4515 1.14732C13.8421 1.45424 14.0904 1.85324 14.1964 2.34431L15.0419 6.03571H13.9369L13.1585 2.58705C13.0971 2.34152 12.9688 2.14062 12.7734 1.98437C12.5837 1.82812 12.3633 1.75 12.1122 1.75H10.7143C10.7143 1.89509 10.6613 2.02065 10.5552 2.12667C10.4492 2.2327 10.3237 2.28571 10.1786 2.28571H6.96429C6.8192 2.28571 6.69364 2.2327 6.58761 2.12667C6.48159 2.02065 6.42857 1.89509 6.42857 1.75H5.03069C4.77958 1.75 4.55636 1.82812 4.36105 1.98437C4.17132 2.14062 4.04576 2.34152 3.98438 2.58705Z" fill="white"/>
</svg>
