<svg id="XMLID_1156" data-name="XMLID 1156" xmlns="http://www.w3.org/2000/svg" width="43" height="42" viewBox="0 0 43 42">
  <g id="XMLID_416" data-name="XMLID 416">
    <path id="XMLID_419" data-name="XMLID 419" d="M40.984,29.149V5.783a2.535,2.535,0,0,0-2.562-2.5H32.334v-.82a2.52,2.52,0,0,0-5.039,0v.82H13.689v-.82a2.52,2.52,0,0,0-5.039,0v.82H2.562A2.535,2.535,0,0,0,0,5.783V36.217a2.535,2.535,0,0,0,2.562,2.5H14.009a.821.821,0,1,0,0-1.641H2.562a.873.873,0,0,1-.882-.861V5.783a.873.873,0,0,1,.882-.861H8.65v.82a2.52,2.52,0,0,0,5.039,0v-.82H27.295v.82a2.52,2.52,0,0,0,5.039,0v-.82h6.089a.873.873,0,0,1,.882.861V9.844H7.559a.821.821,0,1,0,0,1.641H39.3V27.762a7.952,7.952,0,0,0-2.352-.971V14.6a.83.83,0,0,0-.84-.82H4.871a.83.83,0,0,0-.84.82V33.961a.83.83,0,0,0,.84.82H27.227a7.5,7.5,0,0,0,.518,2.3H20.727a.821.821,0,1,0,0,1.641h7.92A7.947,7.947,0,0,0,35.105,42,7.813,7.813,0,0,0,43,34.289,7.58,7.58,0,0,0,40.984,29.149ZM12.01,5.742a.84.84,0,0,1-1.68,0V2.461a.84.84,0,0,1,1.68,0Zm18.645,0a.84.84,0,0,1-1.68,0V2.461a.84.84,0,0,1,1.68,0Zm4.451,20.836a8.113,8.113,0,0,0-1.15.082H30.7V21.9h4.569V26.58ZM27.3,33.141H24.456V28.3h4.569v1.076A7.6,7.6,0,0,0,27.3,33.141ZM5.711,21.9H10.28V26.66H5.711Zm6.248,0h4.569V26.66H11.959Zm12.5,0h4.569V26.66H24.456Zm-1.68,4.758H18.208V21.9h4.569Zm1.68-6.4v-4.84h4.569v4.84Zm-1.68,0H18.208v-4.84h4.569Zm-6.248,0H11.959v-4.84h4.569Zm0,8.039v4.84H11.959V28.3Zm1.68,0h4.569v4.84H18.208V28.3Zm17.066-8.039H30.7v-4.84h4.569ZM10.28,15.422v4.84H5.711v-4.84ZM5.711,28.3H10.28v4.84H5.711ZM35.105,40.359a6.072,6.072,0,1,1,6.215-6.07A6.151,6.151,0,0,1,35.105,40.359Z" fill="#bf0930"/>
    <path id="XMLID_1115" data-name="XMLID 1115" d="M5.187.24,2.59,2.777,1.434,1.648a.854.854,0,0,0-1.188,0,.807.807,0,0,0,0,1.16L2,4.518a.854.854,0,0,0,1.188,0L6.375,1.4a.807.807,0,0,0,0-1.16A.854.854,0,0,0,5.187.24Z" transform="translate(32.348 32.061)" fill="#bf0930"/>
    <path id="XMLID_1116" data-name="XMLID 1116" d="M.84,0A.857.857,0,0,0,.246.24.817.817,0,0,0,0,.82a.817.817,0,0,0,.246.58.854.854,0,0,0,1.188,0A.817.817,0,0,0,1.68.82.817.817,0,0,0,1.434.24.857.857,0,0,0,.84,0Z" transform="translate(16.528 37.078)" fill="#bf0930"/>
    <path id="XMLID_1120" data-name="XMLID 1120" d="M1.434,1.4A.817.817,0,0,0,1.68.82.817.817,0,0,0,1.434.24.854.854,0,0,0,.246.24.817.817,0,0,0,0,.82a.817.817,0,0,0,.246.58.854.854,0,0,0,1.187,0Z" transform="translate(3.359 9.844)" fill="#bf0930"/>
  </g>
</svg>
