<svg xmlns="http://www.w3.org/2000/svg" width="42" height="39" viewBox="0 0 42 39">
  <g id="address_1" data-name="address 1" transform="translate(-0.001)">
    <path id="Vector" d="M.82,0A.793.793,0,0,0,0,.762a.793.793,0,0,0,.82.762.793.793,0,0,0,.82-.762A.793.793,0,0,0,.82,0Z" transform="translate(25.102 19.805)" fill="#bf0930"/>
    <path id="Vector-2" data-name="Vector" d="M8.381,28.167l-8.2,9.6a.717.717,0,0,0-.1.8A.828.828,0,0,0,.82,39H41.18a.828.828,0,0,0,.739-.431.717.717,0,0,0-.1-.8l-8.2-9.6a.845.845,0,0,0-.642-.288H25.791l6.135-8.935a11.527,11.527,0,0,0,2.2-6.757C34.125,5.467,28.237,0,21,0S7.875,5.467,7.875,12.188a11.528,11.528,0,0,0,2.2,6.757l6.135,8.935H9.023a.845.845,0,0,0-.642.288ZM5.318,34.2h4.96l-2.8,3.275H2.519Zm11.937-4.8L19.5,32.678H13.675l2.8-3.275Zm7.49,0h.781l2.8,3.275H22.5Zm4.882,4.8,2.8,3.275H9.573l2.8-3.275Zm4.894,3.275-2.8-3.275h4.96l2.8,3.275Zm.858-4.8H30.42L27.62,29.4h4.96ZM11.444,18.105a10.086,10.086,0,0,1-1.928-5.918C9.516,6.307,14.668,1.523,21,1.523S32.484,6.307,32.484,12.188a10.088,10.088,0,0,1-1.928,5.918l-.01.013L21,32.023l-9.547-13.9-.009-.013ZM14.38,29.4l-2.8,3.275H6.62L9.42,29.4Z" transform="translate(0.001)" fill="#bf0930"/>
    <path id="Vector-3" data-name="Vector" d="M8.2,15.234c4.5,0,8.2-3.386,8.2-7.617,0-4.2-3.68-7.617-8.2-7.617S0,3.417,0,7.617C0,11.849,3.7,15.234,8.2,15.234Zm0-13.711a6.348,6.348,0,0,1,6.563,6.094A6.343,6.343,0,0,1,8.2,13.711,6.342,6.342,0,0,1,1.641,7.617,6.348,6.348,0,0,1,8.2,1.523Z" transform="translate(12.797 4.57)" fill="#bf0930"/>
    <path id="Vector-4" data-name="Vector" d="M4.276.109A.857.857,0,0,0,3.15.369L.118,5.04A.732.732,0,0,0,.4,6.085a.857.857,0,0,0,1.126-.259L4.555,1.155A.732.732,0,0,0,4.276.109Z" transform="translate(20.179 22.295)" fill="#bf0930"/>
  </g>
</svg>
