<svg xmlns="http://www.w3.org/2000/svg" width="36" height="33.192" viewBox="0 0 36 33.192">
  <g id="email_1_1" data-name="email (1) 1" transform="translate(0 -2.404)">
    <g id="Group">
      <g id="Group-2" data-name="Group">
        <g id="Group-3" data-name="Group">
          <path id="Vector" d="M35.831,10.657,30.618,6.77V1.092A1.2,1.2,0,0,0,29.625,0H6.786a1.2,1.2,0,0,0-.993,1.092V6.726L.372,10.656a.974.974,0,0,0-.372.7V32.1a1.235,1.235,0,0,0,1.034,1.092H35.376c.455,0,.621-.568.621-1.092V11.355C36,11.093,36.038,10.831,35.831,10.657ZM30.618,8.866l3.558,2.577-3.558,2.839ZM7.448,1.747H28.963V15.635L18.205,24.2,7.448,15.635V1.747ZM5.793,8.822v5.5L2.234,11.443ZM1.655,13.233,13.24,22.492,1.655,30.747ZM3.641,31.445l11.006-7.818,2.938,2.358a.961.961,0,0,0,.579.218c.166,0,.248-.087.414-.218L21.639,23.5l11.13,7.949Zm30.7-1L23,22.4l11.337-9.172Z" transform="translate(0 2.404)" fill="#bf0930"/>
          <path id="Vector-2" data-name="Vector" d="M.828,1.747H4.551A.851.851,0,0,0,5.379.873.851.851,0,0,0,4.551,0H.828A.851.851,0,0,0,0,.873.851.851,0,0,0,.828,1.747Z" transform="translate(10.757 8.081)" fill="#bf0930"/>
          <path id="Vector-3" data-name="Vector" d="M.828,1.747h13.24A.851.851,0,0,0,14.9.873.851.851,0,0,0,14.068,0H.828A.851.851,0,0,0,0,.873.851.851,0,0,0,.828,1.747Z" transform="translate(10.757 12.012)" fill="#bf0930"/>
          <path id="Vector-4" data-name="Vector" d="M14.9.873A.851.851,0,0,0,14.068,0H.828A.851.851,0,0,0,0,.873a.851.851,0,0,0,.828.873h13.24A.851.851,0,0,0,14.9.873Z" transform="translate(10.757 15.943)" fill="#bf0930"/>
        </g>
      </g>
    </g>
  </g>
</svg>
