<svg xmlns="http://www.w3.org/2000/svg" width="12.973" height="12" viewBox="0 0 12.973 12">
  <g id="Group" transform="translate(-0.014)">
    <g id="Group-2" data-name="Group">
      <path id="Vector" d="M12.633,8.807,10.818,7.132a1.251,1.251,0,0,0-2.009.419,1.256,1.256,0,0,1-1.425.718,5.4,5.4,0,0,1-3.369-3.11,1.072,1.072,0,0,1,.778-1.316,1.08,1.08,0,0,0,.454-1.854L3.432.314a1.375,1.375,0,0,0-1.749,0L.452,1.45c-1.231,1.2.13,4.366,3.175,7.177s6.479,4.127,7.775,2.931l1.231-1.136A1.128,1.128,0,0,0,12.633,8.807Z" transform="translate(0.014 0)" fill="#ff8e28"/>
    </g>
  </g>
</svg>
