<svg xmlns="http://www.w3.org/2000/svg" width="96.987" height="51.385" viewBox="0 0 96.987 51.385">
  <path id="Vector" d="M1105.087,4651.142c-9.627,1.345-19.146,4.015-27.644,9.417a38.567,38.567,0,0,0-5.524,4.226,58.707,58.707,0,0,0-24.967,2.6,88.992,88.992,0,0,0-24.43,12.451c-2.325,1.624-4.655,3.354-6.868,5.23q4.535-9.174,9.068-18.365c.986-2.007-1.824-3.552-2.8-1.581q-6,12.13-11.991,24.277a1.856,1.856,0,0,0,1.572,2.592q13.033.565,26.036,1.133c1.979.095,1.617-3.524-.333-3.622-6.813-.29-13.614-.6-20.427-.888a88.365,88.365,0,0,1,28.554-16.914,57.275,57.275,0,0,1,23.366-3.569,29.777,29.777,0,0,0-4.69,7.643,21.194,21.194,0,0,0-.379,15.843,17.276,17.276,0,0,0,13.241,10.715c6.055.905,12.423-1.556,16.971-6.076,3.964-3.938,6.606-10.176,4.292-16.317-3.39-8.972-13.875-12.447-21.121-14.224-.212-.05-.423-.083-.635-.133,8.491-6.6,18.989-9.428,29.04-10.83C1107.381,4654.491,1107.048,4650.869,1105.087,4651.142Zm-14.539,24.289c2.437,1.843,4.832,4.516,5.33,8,.929,6.394-4.631,11.343-8.891,13.518-5.618,2.882-12.516,2.794-17.5-2.111a15.164,15.164,0,0,1-3.9-13.42c.885-5.194,3.886-9.464,7.3-12.823.992.152,1.986.322,2.984.544A37.311,37.311,0,0,1,1090.548,4675.431Z" transform="translate(-1009.748 -4651.127)" fill="rgba(255,255,255,0.96)" opacity="0.2"/>
</svg>
