<svg xmlns="http://www.w3.org/2000/svg" width="33.872" height="35" viewBox="0 0 33.872 35">
  <g id="telephone_2_1" data-name="telephone (2) 1" transform="translate(0)">
    <g id="Group">
      <path id="Vector" d="M6.864,23.266a36.244,36.244,0,0,0,12,9.675,18.282,18.282,0,0,0,6.714,2.045c.162.007.317.015.479.015a5.487,5.487,0,0,0,4.312-1.907.157.157,0,0,0,.028-.036,18.459,18.459,0,0,1,1.36-1.45c.331-.326.669-.667.993-1.015a3.571,3.571,0,0,0-.014-5.214L28.5,21.017a3.386,3.386,0,0,0-2.48-1.175,3.5,3.5,0,0,0-2.508,1.168l-2.522,2.6c-.232-.138-.472-.261-.7-.377a8.638,8.638,0,0,1-.775-.435,26.986,26.986,0,0,1-6.376-5.976,15.9,15.9,0,0,1-2.156-3.539c.662-.616,1.282-1.262,1.881-1.893.211-.225.43-.45.648-.674A3.767,3.767,0,0,0,14.684,8.1,3.737,3.737,0,0,0,13.515,5.49l-2.1-2.161c-.247-.254-.479-.5-.719-.754-.465-.493-.951-1-1.43-1.458A3.465,3.465,0,0,0,6.786,0,3.567,3.567,0,0,0,4.278,1.124L1.643,3.837A5.644,5.644,0,0,0,.03,7.4a13.776,13.776,0,0,0,.979,5.8A33.974,33.974,0,0,0,6.864,23.266ZM1.749,7.557a3.885,3.885,0,0,1,1.12-2.466l2.621-2.7a1.874,1.874,0,0,1,1.3-.616,1.78,1.78,0,0,1,1.268.631c.472.45.916.921,1.395,1.421.24.254.486.508.733.769l2.1,2.161a1.992,1.992,0,0,1,.662,1.356,1.992,1.992,0,0,1-.662,1.356c-.218.225-.437.457-.655.682-.655.682-1.268,1.327-1.944,1.944l-.035.036a1.448,1.448,0,0,0-.352,1.61c.007.022.014.036.021.058a17.167,17.167,0,0,0,2.473,4.141A28.482,28.482,0,0,0,18.58,24.31a10,10,0,0,0,.93.522,8.638,8.638,0,0,1,.775.435c.028.015.049.029.077.044a1.44,1.44,0,0,0,.683.181A1.479,1.479,0,0,0,22.1,25l2.635-2.712a1.844,1.844,0,0,1,1.289-.645,1.753,1.753,0,0,1,1.247.645l4.248,4.366a1.781,1.781,0,0,1-.021,2.734c-.3.326-.606.638-.937.965a20.631,20.631,0,0,0-1.472,1.574,3.817,3.817,0,0,1-3.022,1.32c-.12,0-.247-.007-.366-.015a16.611,16.611,0,0,1-6.073-1.871A34.431,34.431,0,0,1,8.2,22.149a32.516,32.516,0,0,1-5.566-9.537A12,12,0,0,1,1.749,7.557Z" transform="translate(0 0)" fill="#bf0930"/>
    </g>
  </g>
</svg>
