<svg width="35" height="34" viewBox="0 0 35 34" fill="none" xmlns="http://www.w3.org/2000/svg">
<path d="M34.4021 16.8977L34.4009 14.9233C34.3994 13.0058 34.3979 11.0229 34.4103 9.07307C34.4136 8.56042 34.2096 8.22954 33.7494 7.99938C28.8407 5.54866 23.7248 2.98512 18.1094 0.162988C17.7228 -0.0314852 17.3794 -0.0320901 16.9956 0.160568C11.6853 2.83147 6.39763 5.48272 1.27985 8.03991C0.86946 8.24497 0.686898 8.54227 0.687501 9.00381C0.69414 14.2567 0.69414 19.5099 0.687501 24.7628C0.686898 25.2177 0.872478 25.5135 1.2889 25.7215C6.53855 28.3453 11.819 30.992 16.9832 33.5891C17.1824 33.6892 17.3692 33.7394 17.5545 33.7394C17.7334 33.7394 17.9111 33.6925 18.097 33.5991C23.3289 30.9693 28.6048 28.3253 33.7775 25.7409C34.2159 25.5219 34.41 25.208 34.4075 24.7223C34.3985 22.7663 34.3997 20.8104 34.4006 18.8542L34.4021 16.8977ZM18.3448 17.5004C18.3439 17.3801 18.3562 17.3658 18.4443 17.3223C22.359 15.3664 26.2716 13.4062 30.1845 11.4458L32.7977 10.1368L32.7974 12.8264C32.7971 16.6188 32.7965 20.4115 32.8052 24.2039C32.8055 24.3932 32.772 24.4458 32.5952 24.5341C28.7213 26.4671 24.8512 28.407 20.9812 30.3472L18.3493 31.6664L18.3499 20.1683C18.3508 19.2791 18.3514 18.3896 18.3448 17.5004ZM16.7446 31.6598C16.7442 31.6598 16.7436 31.6595 16.743 31.6592L10.9904 28.7787C8.14148 27.3517 5.2926 25.9251 2.44252 24.5006C2.31004 24.4343 2.29013 24.4056 2.29043 24.2816C2.29737 20.3135 2.29707 16.3451 2.29677 12.3767V10.1353C2.78471 10.3784 3.27234 10.6225 3.75998 10.8666C4.60369 11.2891 5.44771 11.7116 6.29443 12.1287C6.41242 12.1868 6.43143 12.2188 6.43083 12.3579C6.42298 13.823 6.42389 15.2877 6.42509 16.7528L6.4257 17.815C6.4257 18.5542 6.7018 18.8291 7.44292 18.8303C7.57901 18.8306 7.7154 18.8321 7.85149 18.8336C8.20183 18.8373 8.56424 18.8412 8.92273 18.8236C9.11525 18.8137 9.23867 18.8687 9.39558 19.0314C9.7589 19.4089 10.1298 19.7788 10.5009 20.149C10.7146 20.3619 10.9282 20.5754 11.1403 20.7895C11.2719 20.9226 11.6213 21.2762 12.1229 21.0602C12.5701 20.8676 12.6201 20.4614 12.6192 20.1729C12.6153 18.9782 12.6159 17.7835 12.6165 16.5892L12.6168 15.3065L12.7031 15.3491C12.9645 15.4786 13.2152 15.6026 13.4654 15.7275L16.6281 17.3108C16.7512 17.3722 16.7512 17.3749 16.7512 17.4409C16.7449 21.546 16.7452 25.6511 16.7452 29.7574L16.7446 31.6598ZM11.0115 18.3875C10.726 18.1014 10.4599 17.8346 10.1995 17.5627C9.97707 17.3308 9.71393 17.218 9.39528 17.218C9.38381 17.218 9.37235 17.218 9.36058 17.2183C9.0033 17.2282 8.64542 17.2252 8.2821 17.224L8.04462 17.2231V13.0133L8.40914 13.1963C9.2782 13.6324 10.1337 14.0619 10.9901 14.4896C11.0009 14.495 11.0085 14.4993 11.013 14.5017C11.0106 15.661 11.0106 16.8202 11.0109 18.0213L11.0115 18.3875ZM25.2514 5.93881C24.7278 6.21918 24.2194 6.49138 23.7103 6.76268L21.193 8.10282C18.142 9.72696 15.0909 11.3508 12.0441 12.9828C11.8576 13.0829 11.7526 13.0856 11.5767 12.9934C10.9635 12.6728 10.3446 12.3631 9.726 12.0537L8.9873 11.6832L22.7054 4.37879L22.7389 4.36034C22.7655 4.34613 22.8029 4.32496 22.8258 4.32677C23.6131 4.726 24.4025 5.1219 25.2136 5.52869L25.6286 5.73708L25.2514 5.93881ZM20.5883 3.68347C19.9697 4.01465 19.3701 4.33584 18.7696 4.65553L16.1462 6.05162C13.2463 7.59501 10.3464 9.13839 7.45046 10.6893C7.27212 10.7849 7.16651 10.7852 6.98123 10.6899C6.2196 10.2998 5.45434 9.91689 4.68909 9.5343C4.22348 9.30141 3.75817 9.06853 3.29347 8.83413L6.61188 7.16916C10.1844 5.37898 13.7566 3.5888 17.3263 1.79287C17.5005 1.70486 17.6046 1.70456 17.7723 1.79106C18.6547 2.24533 19.5424 2.68872 20.454 3.1439L21.0443 3.43909L20.5883 3.68347ZM31.1432 9.16864C30.4579 9.51313 29.7922 9.84793 29.1259 10.1818L26.628 11.4331C23.6789 12.9099 20.7301 14.3871 17.7841 15.8699C17.6046 15.9598 17.4884 15.9586 17.3061 15.8648C16.3821 15.3891 15.453 14.9239 14.5236 14.4587L13.5722 13.9818L18.3596 11.4334C21.3089 9.86427 24.2583 8.29548 27.2046 6.72003C27.3603 6.63656 27.4373 6.63414 27.5806 6.70733C28.7191 7.28833 29.8625 7.85995 31.0366 8.447L31.8097 8.83383L31.1432 9.16864Z" fill="#BF0930"/>
</svg>
