<svg width="48" height="29" viewBox="0 0 48 29" fill="none" xmlns="http://www.w3.org/2000/svg">
<path d="M47.0012 19.5872C47.0173 18.5295 46.7631 17.5511 46.2239 16.5947C44.9096 14.2619 43.5506 11.8503 42.2282 9.41847C41.6772 8.4051 40.9025 7.95321 39.7614 7.95954C38.4862 7.97977 37.2368 7.97555 35.9144 7.97134C35.4356 7.96965 34.9538 7.96797 34.4682 7.96754L34.469 6.5613C34.4703 5.29712 34.4715 4.05486 34.466 2.81259C34.4606 1.62471 33.8093 0.970064 32.632 0.969642C23.8809 0.965848 19.2811 0.965848 10.5292 0.969642C9.38978 0.970064 8.7326 1.63103 8.72628 2.78224C8.72333 3.34288 8.72375 3.90352 8.7246 4.47555L8.72502 5.02692L7.94391 5.02607C7.15944 5.02481 6.39056 5.02312 5.62168 5.03029C4.95481 5.03661 4.51557 5.42147 4.5025 6.01078C4.4966 6.28393 4.59229 6.53686 4.7727 6.72191C4.97083 6.92509 5.26084 7.03722 5.58964 7.03806C8.76548 7.04733 11.9413 7.04776 15.1176 7.03806C15.4557 7.03722 15.7385 6.93057 15.9358 6.72992C16.1162 6.54655 16.2094 6.30037 16.206 6.01794C16.198 5.42316 15.7621 5.03577 15.0957 5.03071C14.1316 5.02354 13.1672 5.02523 12.2023 5.02607L10.7779 5.02692V3.0183H32.409V23.3021H25.3537C24.6641 21.1494 23.1432 19.8645 21.1599 19.7697C18.9616 19.6601 17.5393 20.7202 16.4315 23.295H10.7762V19.22L11.2652 19.2213C11.8111 19.2246 12.3452 19.2263 12.8792 19.2145C13.4399 19.2023 13.8374 18.8271 13.8686 18.2804C13.8989 17.7472 13.5495 17.3256 12.9994 17.2304C12.8556 17.2059 12.7132 17.2042 12.5774 17.2072H12.5184C9.39231 17.2063 6.26578 17.2059 3.13884 17.2089C2.92807 17.2093 2.70423 17.2186 2.49262 17.2801C2.02092 17.4179 1.75915 17.7927 1.79245 18.2825C1.82744 18.798 2.1419 19.1348 2.65533 19.2069C2.78643 19.2255 2.91542 19.2234 3.03809 19.2225L4.7491 19.2217C5.96312 19.2217 7.17672 19.2217 8.39074 19.2251C8.44385 19.2234 8.4839 19.2217 8.53153 19.2183C8.615 19.212 8.67485 19.209 8.72586 19.2196V20.5103C8.72586 21.6999 8.72544 22.8933 8.7267 24.087C8.72755 24.99 9.07826 25.3424 9.97655 25.3432L12.4185 25.3441C13.6393 25.3441 14.86 25.3441 16.0808 25.347C16.1154 25.3415 16.1837 25.3432 16.2355 25.339C16.3156 25.3335 16.3763 25.3289 16.4248 25.3377C17.1477 27.9335 19.1808 28.8824 20.8581 28.9027C22.9552 28.9398 24.557 27.6768 25.355 25.3774H35.2434C35.8483 27.4737 37.4294 28.7867 39.5025 28.901C39.5961 28.9065 39.688 28.909 39.7795 28.909C41.7489 28.909 43.2226 27.711 44.163 25.3441L44.3696 25.3445C44.6398 25.3445 44.9146 25.3453 45.1882 25.3436C46.3681 25.3382 46.9928 24.7198 46.9953 23.5551C46.9966 23.0829 46.9949 22.6104 46.9936 22.1383C46.9911 21.2872 46.9882 20.437 47.0012 19.5872ZM44.9817 23.2988H44.1555C43.1345 20.775 41.6756 19.6858 39.4671 19.7667C37.4648 19.8418 35.9629 21.1005 35.2231 23.3169H34.509V9.97489C34.5238 9.97574 34.539 9.97742 34.5512 9.97827C34.59 9.98164 34.6321 9.98881 34.6654 9.98501C35.2413 9.98459 35.8175 9.98459 36.3937 9.98501C37.539 9.98586 38.6835 9.9867 39.8284 9.97532C39.8335 9.97532 39.8381 9.97532 39.8427 9.97532C40.1344 9.97532 40.2832 10.0651 40.427 10.3265C41.7759 12.7671 43.1366 15.2015 44.4969 17.6359C44.8329 18.2366 44.993 18.8516 44.9859 19.5163C44.9762 20.445 44.9783 21.374 44.9804 22.3132L44.9817 23.2988ZM37.8995 22.5147C38.3758 22.0396 39.0098 21.7783 39.6855 21.7783C39.6884 21.7783 39.691 21.7783 39.6935 21.7783C41.1276 21.7825 42.2101 22.8874 42.2122 24.3484C42.2139 25.7454 41.0905 26.8856 39.7083 26.8902C39.03 26.8945 38.3926 26.6352 37.9218 26.1661C37.4332 25.6792 37.1643 25.0127 37.1643 24.2881C37.1639 23.6179 37.4252 22.9881 37.8995 22.5147ZM20.9158 26.8902C20.9103 26.8902 20.9044 26.8902 20.8985 26.8902C19.4666 26.8801 18.3828 25.774 18.3773 24.3168C18.3723 22.9017 19.4683 21.7863 20.8728 21.7787C21.546 21.7796 22.2002 22.0346 22.6799 22.5109C23.1605 22.9881 23.4256 23.6301 23.4269 24.318C23.4277 25.0191 23.1584 25.6745 22.6673 26.1631C22.1956 26.6327 21.5742 26.8902 20.9158 26.8902Z" fill="#BF0930"/>
<path d="M6.85762 13.6115C6.26705 13.6233 5.85858 14.0111 5.84088 14.5768C5.82359 15.1572 6.22447 15.5763 6.83823 15.6192C6.92717 15.6256 7.01654 15.6247 7.10548 15.6235L20.5499 15.6222L20.6528 15.6235C20.6894 15.6239 20.7261 15.6243 20.7636 15.6243C20.8496 15.6243 20.9377 15.6214 21.0279 15.6079C21.3276 15.5628 21.5801 15.4055 21.7386 15.1657C21.8929 14.9317 21.9372 14.6476 21.8634 14.3664C21.664 13.6026 20.947 13.6098 20.7067 13.6043C17.498 13.6115 14.2893 13.6089 11.0801 13.6052H11.0789C11.0321 13.6052 10.9844 13.6081 10.9364 13.6115C10.8584 13.617 10.7964 13.6203 10.7416 13.6123V12.5728C10.7421 11.5519 10.7421 10.5288 10.7408 9.50573C10.7404 9.08503 10.6202 8.74654 10.3943 8.5265C10.2143 8.35156 9.97698 8.26431 9.70677 8.26979C9.0947 8.28538 8.72839 8.74233 8.72712 9.49139C8.72544 10.4875 8.72586 11.484 8.72628 12.5028V13.6077L8.29252 13.6064C7.80228 13.6039 7.33016 13.6022 6.85762 13.6115Z" fill="#BF0930"/>
<path d="M3.06127 11.4342L3.74458 11.4338L4.37899 11.4342C4.98769 11.4347 5.59596 11.4355 6.20466 11.4342C6.94698 11.4321 7.39086 11.0528 7.39212 10.4196C7.39254 10.103 7.27957 9.84422 7.06501 9.67139C6.86057 9.50657 6.57013 9.42268 6.20213 9.42184C5.57446 9.421 4.94722 9.421 4.3204 9.42184L3.694 9.42226L3.07982 9.42142C2.4648 9.421 1.84936 9.42016 1.23434 9.42142C0.492017 9.42353 0.0481408 9.80333 0.0468762 10.4365C0.0460332 11.0692 0.479371 11.4326 1.23687 11.4342C1.46113 11.4347 1.68538 11.4347 1.90964 11.4347C2.29324 11.4351 2.67725 11.4347 3.06127 11.4342Z" fill="#BF0930"/>
</svg>
