<svg width="47" height="40" viewBox="0 0 47 40" fill="none" xmlns="http://www.w3.org/2000/svg">
<path d="M24.7728 16.3106C24.1915 15.7628 24.1915 14.8752 24.7728 14.3275L27.3261 11.9214C27.9074 11.3736 28.8494 11.3736 29.4307 11.9214C30.012 12.4691 30.012 13.3568 29.4307 13.9045L26.8773 16.3106C26.296 16.8583 25.3541 16.8583 24.7728 16.3106Z" fill="#BF0930"/>
<path d="M26.3296 28.1702C26.9097 28.7168 27.9233 28.7164 28.5008 28.1706L41.7525 15.6843C42.0423 15.4113 42.2017 15.0479 42.2017 14.6608C42.2017 14.2736 42.0419 13.9103 41.7525 13.6376L28.0782 0.751826C27.7799 0.470793 27.3872 0.330078 26.9945 0.330078C26.6 0.330078 26.206 0.470793 25.9044 0.752621L12.6549 13.2381C12.3651 13.5112 12.2056 13.8745 12.2056 14.2617C12.2056 14.6488 12.3651 15.0122 12.6549 15.2849L26.3296 28.1702ZM26.9919 3.09708L39.2632 14.6604L27.4159 25.8246L15.1446 14.2617L26.9919 3.09708Z" fill="#BF0930"/>
<path d="M46.3881 19.8214C45.8933 19.3547 45.0302 19.3551 44.5362 19.8214L30.378 33.1623L30.0819 32.9293C29.3247 32.3327 28.3659 32.0044 27.3821 32.0044C26.5115 32.0044 25.672 32.2568 24.9553 32.7342L24.6651 32.9273L6.84449 16.1353C6.59687 15.902 6.26784 15.7736 5.91813 15.7736C5.56843 15.7736 5.23982 15.902 4.99262 16.1349L1.20704 19.7021C0.696613 20.1831 0.696613 20.9658 1.20704 21.4471C1.71746 21.9285 2.54848 21.9285 3.05891 21.4471L5.91855 18.7525L23.2675 35.1005L23.23 35.3036C23.1857 35.5469 23.1637 35.7683 23.1637 35.9798C23.1637 38.1716 25.0557 39.9544 27.3817 39.9544C29.7077 39.9544 31.6001 38.1716 31.6001 35.9798C31.6001 35.9042 31.5938 35.8291 31.5883 35.7552L31.5714 35.5282L46.3881 21.5664C46.6357 21.333 46.7715 21.0234 46.7715 20.6939C46.7715 20.3643 46.6357 20.0543 46.3881 19.8214ZM27.3817 37.7725C26.333 37.7725 25.4796 36.9683 25.4796 35.9798C25.4796 34.9912 26.3326 34.1866 27.3817 34.1866C28.4308 34.1866 29.2842 34.9908 29.2842 35.9798C29.2842 36.9683 28.4304 37.7725 27.3817 37.7725Z" fill="#BF0930"/>
</svg>
